<svg width="33" height="33" viewBox="0 0 33 33" fill="none" xmlns="http://www.w3.org/2000/svg">
<path d="M14.8366 15.7287C14.8366 15.7287 16.7103 15.5896 16.7103 13.3923C16.7103 11.1949 15.1773 10.1226 13.2355 10.1226H6.8457V22.402H13.2355C13.2355 22.402 17.1363 22.5252 17.1363 18.7777C17.1363 18.7777 17.3063 15.7287 14.8366 15.7287V15.7287ZM12.7756 12.3051H13.2355C13.2355 12.3051 14.1041 12.3051 14.1041 13.5827C14.1041 14.8602 13.5933 15.0454 13.0139 15.0454H9.66114V12.3051H12.7756V12.3051ZM13.055 20.2195H9.66114V16.938H13.2355C13.2355 16.938 14.5301 16.921 14.5301 18.6244C14.5301 20.0607 13.5632 20.2087 13.055 20.2195V20.2195ZM22.3386 13.2468C17.6163 13.2468 17.6205 17.9649 17.6205 17.9649C17.6205 17.9649 17.2965 22.6589 22.3386 22.6589C22.3386 22.6589 26.5403 22.8989 26.5403 19.3936H24.3794C24.3794 19.3936 24.4515 20.7136 22.4107 20.7136C22.4107 20.7136 20.2494 20.8584 20.2494 18.5773H26.6124C26.6124 18.5772 27.3086 13.2468 22.3386 13.2468ZM20.2257 16.938C20.2257 16.938 20.4896 15.0454 22.3866 15.0454C24.2832 15.0454 24.2595 16.938 24.2595 16.938H20.2257ZM24.7629 12.3581H19.6967V10.846H24.7629V12.3581Z" fill="white"/>
</svg>
