<svg width="135" height="39" viewBox="0 0 135 39" fill="none" xmlns="http://www.w3.org/2000/svg">
<path fill-rule="evenodd" clip-rule="evenodd" d="M32.383 10.4905C35.2341 10.4905 37.5454 8.143 37.5454 5.24721C37.5454 2.35141 35.2341 0.00390625 32.383 0.00390625C29.532 0.00390625 27.2207 2.35141 27.2207 5.24721C27.2207 8.143 29.532 10.4905 32.383 10.4905Z" fill="#FF2D46"/>
<path fill-rule="evenodd" clip-rule="evenodd" d="M32.383 24.2473C35.2341 24.2473 37.5454 21.8999 37.5454 19.0041C37.5454 16.1082 35.2341 13.7607 32.383 13.7607C29.532 13.7607 27.2207 16.1082 27.2207 19.0041C27.2207 21.8999 29.532 24.2473 32.383 24.2473Z" fill="#D53D5C"/>
<path fill-rule="evenodd" clip-rule="evenodd" d="M32.383 38.0042C35.2341 38.0042 37.5454 35.6567 37.5454 32.7609C37.5454 29.8651 35.2341 27.5176 32.383 27.5176C29.532 27.5176 27.2207 29.8651 27.2207 32.7609C27.2207 35.6567 29.532 38.0042 32.383 38.0042Z" fill="#815EAD"/>
<path fill-rule="evenodd" clip-rule="evenodd" d="M19.2385 24.2473C22.0896 24.2473 24.4009 21.8999 24.4009 19.0041C24.4009 16.1082 22.0896 13.7607 19.2385 13.7607C16.3874 13.7607 14.0762 16.1082 14.0762 19.0041C14.0762 21.8999 16.3874 24.2473 19.2385 24.2473Z" fill="#AB4D85"/>
<path fill-rule="evenodd" clip-rule="evenodd" d="M19.2385 38.0037C22.0896 38.0037 24.4009 35.6563 24.4009 32.7604C24.4009 29.8647 22.0896 27.5171 19.2385 27.5171C16.3874 27.5171 14.0762 29.8647 14.0762 32.7604C14.0762 35.6563 16.3874 38.0037 19.2385 38.0037Z" fill="#576ED6"/>
<path fill-rule="evenodd" clip-rule="evenodd" d="M6.09203 38.0042C8.94311 38.0042 11.2544 35.6567 11.2544 32.7609C11.2544 29.8651 8.94311 27.5176 6.09203 27.5176C3.24095 27.5176 0.929688 29.8651 0.929688 32.7609C0.929688 35.6567 3.24095 38.0042 6.09203 38.0042Z" fill="#2388FF"/>
<path d="M63.4714 30.2085C60.4146 30.2085 58.032 27.833 58.032 23.9957C58.032 20.2954 60.4146 17.9199 63.4714 17.9199C66.3934 17.9199 68.8209 20.3411 68.8209 23.9957C68.8209 27.7873 66.3934 30.2085 63.4714 30.2085ZM57.7174 32.4927C59.3807 35.2793 62.7072 36.33 64.9999 36.33C70.8438 36.33 75.6988 31.3049 75.6988 24.087C75.6988 17.0976 71.1585 11.7984 64.865 11.7984C62.3476 11.7984 59.6953 12.8491 58.2119 15.1789V3.21H51.3789V35.7818H57.7174V32.4927Z" fill="#19213D"/>
<path d="M87.4149 12.3466H80.6269V35.7818H87.5048V26.3255C87.5048 21.4374 89.8873 18.3767 93.8433 18.3767C94.5176 18.3767 95.0121 18.4681 95.3717 18.6051V11.9811C95.0121 11.844 94.4726 11.7984 93.9332 11.7984C90.8763 11.7984 88.6286 13.5343 87.4149 16.4123V12.3466Z" fill="#19213D"/>
<path d="M99.3827 35.7818H106.216V12.3466H99.3827V35.7818ZM102.709 1.97656C100.597 1.97656 98.9332 3.52978 98.9332 5.67687C98.9332 7.82396 100.597 9.42286 102.709 9.42286C104.822 9.42286 106.53 7.82396 106.53 5.67687C106.53 3.52978 104.822 1.97656 102.709 1.97656Z" fill="#19213D"/>
<path d="M117.726 24.0414L109.814 35.7818H117.456L121.771 28.7924L126.087 35.7818H133.729L125.817 24.0414L133.729 12.3466H125.952L121.771 19.3817L117.591 12.3466H109.814L117.726 24.0414Z" fill="#19213D"/>
</svg>
