<svg width="305" height="41" viewBox="0 0 305 41" fill="none" xmlns="http://www.w3.org/2000/svg">
<path d="M62.3991 33.3051V30.7747C63.845 33.1967 66.5924 33.7389 68.1468 33.7389C72.7739 33.7389 76.7141 29.7987 76.7141 24.0148C76.7141 18.484 73.1715 14.2546 67.966 14.2546C66.1947 14.2546 64.1704 14.8691 62.9052 16.785V7.45856H56.6152V33.3051H62.3991ZM62.7606 23.9425C62.7606 21.3398 64.4234 19.7492 66.6285 19.7492C68.689 19.7492 70.388 21.3398 70.388 23.9425C70.388 26.5452 68.689 28.2443 66.6285 28.2443C64.4234 28.2443 62.7606 26.5814 62.7606 23.9425Z" fill="white"/>
<path d="M92.5313 14.3992C92.2421 14.2907 91.8444 14.2546 91.3745 14.2546C88.9164 14.2546 87.1089 15.5921 86.1329 17.8695V14.6884H79.8791V33.3051H86.169V26.473C86.169 22.5689 87.9403 20.1469 91.1215 20.1469C91.7721 20.1469 92.2421 20.2192 92.5313 20.3638V14.3992Z" fill="white"/>
<path d="M94.953 33.3051H101.243V14.6884H94.953V33.3051ZM94.6999 9.4829C94.6999 11.3627 96.1459 12.7363 98.0618 12.7363C99.9777 12.7363 101.46 11.3627 101.46 9.4829C101.46 7.60316 99.9777 6.22949 98.0618 6.22949C96.1459 6.22949 94.6999 7.60316 94.6999 9.4829Z" fill="white"/>
<path d="M109.875 24.0871L103.477 33.3051H110.454L113.49 28.3888L116.527 33.3051H123.504L117.105 24.0871L123.648 14.6884H116.491L113.49 19.8577L110.49 14.6884H103.332L109.875 24.0871Z" fill="white"/>
<path d="M130.895 18.3395H133.28V25.7862C133.28 30.1241 135.739 32.51 139.787 32.51C141.631 32.51 143.041 32.1123 144.017 31.6424V26.3285C143.258 26.8707 142.354 27.0153 141.595 27.0153C140.438 27.0153 139.57 26.3285 139.57 24.7379V18.3395H143.511V13.4594H139.57V8.4347H133.461V13.4594H130.895V18.3395Z" fill="white"/>
<path d="M163.354 24.268C163.535 23.6896 163.715 22.569 163.715 21.593C163.715 16.4959 160.1 13.0256 154.787 13.0256C149.292 13.0256 145.099 17.2912 145.099 22.7859C145.099 28.2805 149.183 32.51 155.546 32.51C158.691 32.51 161.149 31.7147 163.607 29.5096L160.426 25.5332C159.522 26.4008 158.04 27.2684 156.016 27.2684C153.883 27.2684 151.858 26.3646 151.569 24.268H163.354ZM154.642 18.0142C156.269 18.0142 157.534 19.0264 157.642 20.6169V20.6531H151.461C151.569 18.9541 153.015 18.0142 154.642 18.0142Z" fill="white"/>
<path d="M166.807 13.4594V32.0762H173.097V22.2798C173.097 19.9662 174.29 18.5203 176.061 18.5203C177.941 18.5203 178.953 19.6771 178.953 21.846V32.0762H185.243V22.2798C185.243 19.9662 186.508 18.5203 188.207 18.5203C190.087 18.5203 191.099 19.6771 191.099 21.846V32.0762H197.389V20.7254C197.389 15.9176 194.714 13.0256 190.195 13.0256C187.05 13.0256 185.351 14.4354 184.086 16.0622C182.821 14.074 180.797 13.0256 178.049 13.0256C175.844 13.0256 174.073 13.7848 172.808 15.6645V13.4594H166.807Z" fill="white"/>
<path d="M201.65 39.306H207.94V30.2687C209.133 32.0039 211.229 32.51 213.001 32.51C218.206 32.51 221.749 28.2805 221.749 22.7497C221.749 16.9659 217.7 13.0256 213.073 13.0256C211.555 13.0256 208.988 13.5679 207.434 15.9899V13.4594H201.65V39.306ZM207.795 22.822C207.795 20.1831 209.458 18.5203 211.663 18.5203C213.724 18.5203 215.423 20.2193 215.423 22.822C215.423 25.4248 213.724 27.0153 211.663 27.0153C209.458 27.0153 207.795 25.4248 207.795 22.822Z" fill="white"/>
<path d="M224.697 26.5092C224.697 30.4133 226.938 32.51 230.842 32.51C232.107 32.51 233.083 32.2931 233.77 31.9677V26.9069C233.3 27.0876 232.866 27.1238 232.541 27.1238C231.095 27.1238 230.987 26.22 230.987 25.3525V6.22961H224.697V26.5092Z" fill="white"/>
<path d="M241.547 32.51C244.005 32.51 245.632 31.4255 246.355 30.0157V32.0762H252.175V20.4362C252.175 15.8091 248.993 13.0256 243.607 13.0256C239.956 13.0256 236.956 14.6162 235.365 16.6405L238.655 20.5808C239.631 19.4602 241.149 18.3757 243.282 18.3757C244.836 18.3757 246.174 18.9179 246.174 20.4723V20.5085L241.366 21.4484C237.462 22.2798 235.293 24.1595 235.293 26.9069C235.293 30.1964 237.932 32.51 241.547 32.51ZM246.174 24.3041V24.5933C246.174 26.6538 245.017 27.9913 243.029 27.9913C241.908 27.9913 241.294 27.4129 241.294 26.5092C241.294 25.6055 242.017 25.1356 243.137 24.8825L246.174 24.3041Z" fill="white"/>
<path d="M254.415 18.3395H256.801V25.7862C256.801 30.1241 259.259 32.51 263.308 32.51C265.152 32.51 266.562 32.1123 267.538 31.6424V26.3285C266.778 26.8707 265.875 27.0153 265.116 27.0153C263.959 27.0153 263.091 26.3285 263.091 24.7379V18.3395H267.032V13.4594H263.091V8.4347H256.982V13.4594H254.415V18.3395Z" fill="white"/>
<path d="M286.875 24.268C287.056 23.6896 287.236 22.569 287.236 21.593C287.236 16.4959 283.621 13.0256 278.307 13.0256C272.813 13.0256 268.62 17.2912 268.62 22.7859C268.62 28.2805 272.704 32.51 279.067 32.51C282.212 32.51 284.67 31.7147 287.128 29.5096L283.947 25.5332C283.043 26.4008 281.561 27.2684 279.537 27.2684C277.404 27.2684 275.379 26.3646 275.09 24.268H286.875ZM278.163 18.0142C279.79 18.0142 281.055 19.0264 281.163 20.6169V20.6531H274.982C275.09 18.9541 276.536 18.0142 278.163 18.0142Z" fill="white"/>
<path d="M296.762 32.51C301.389 32.51 304.498 29.9434 304.498 26.6177C304.498 22.9305 301.643 21.9544 298.714 20.7977C296.076 19.6771 294.955 19.4963 294.955 18.8095C294.955 18.1226 295.786 17.725 296.762 17.725C298.498 17.725 299.474 18.5564 300.088 19.6048L303.992 16.7851C302.835 14.58 300.124 13.0256 296.943 13.0256C292.75 13.0256 289.243 15.05 289.243 18.7733C289.243 21.7737 291.304 23.2558 294.955 24.5572C297.522 25.4609 298.787 25.7862 298.787 26.7623C298.787 27.4491 298.1 27.8106 296.835 27.8106C294.955 27.8106 293.509 26.6538 292.641 25.1717L288.629 28.2444C290.183 30.9917 293.292 32.51 296.762 32.51Z" fill="white"/>
<path fill-rule="evenodd" clip-rule="evenodd" d="M34.5922 11.9191C37.8338 11.9191 40.4617 9.29119 40.4617 6.04955C40.4617 2.80792 37.8338 0.180054 34.5922 0.180054C31.3505 0.180054 28.7227 2.80792 28.7227 6.04955C28.7227 9.29119 31.3505 11.9191 34.5922 11.9191Z" fill="white"/>
<path opacity="0.9" fill-rule="evenodd" clip-rule="evenodd" d="M34.5922 26.0021C37.8338 26.0021 40.4617 23.3746 40.4617 20.1334C40.4617 16.8922 37.8338 14.2646 34.5922 14.2646C31.3505 14.2646 28.7227 16.8922 28.7227 20.1334C28.7227 23.3746 31.3505 26.0021 34.5922 26.0021Z" fill="white"/>
<path opacity="0.8" fill-rule="evenodd" clip-rule="evenodd" d="M34.5922 40.6102C37.8338 40.6102 40.4617 37.9823 40.4617 34.7407C40.4617 31.4991 37.8338 28.8712 34.5922 28.8712C31.3505 28.8712 28.7227 31.4991 28.7227 34.7407C28.7227 37.9823 31.3505 40.6102 34.5922 40.6102Z" fill="white"/>
<path opacity="0.8" fill-rule="evenodd" clip-rule="evenodd" d="M19.9839 26.0016C23.2251 26.0016 25.8527 23.3741 25.8527 20.1329C25.8527 16.8917 23.2251 14.2642 19.9839 14.2642C16.7427 14.2642 14.1152 16.8917 14.1152 20.1329C14.1152 23.3741 16.7427 26.0016 19.9839 26.0016Z" fill="white"/>
<path opacity="0.7" fill-rule="evenodd" clip-rule="evenodd" d="M19.9839 40.61C23.2251 40.61 25.8527 37.9821 25.8527 34.7405C25.8527 31.4988 23.2251 28.871 19.9839 28.871C16.7427 28.871 14.1152 31.4988 14.1152 34.7405C14.1152 37.9821 16.7427 40.61 19.9839 40.61Z" fill="white"/>
<g opacity="0.6">
<path fill-rule="evenodd" clip-rule="evenodd" d="M5.90075 40.61C9.14238 40.61 11.7702 37.9821 11.7702 34.7405C11.7702 31.4988 9.14238 28.871 5.90075 28.871C2.65911 28.871 0.03125 31.4988 0.03125 34.7405C0.03125 37.9821 2.65911 40.61 5.90075 40.61Z" fill="white"/>
</g>
</svg>
