<svg width="34" height="32" viewBox="0 0 34 32" fill="none" xmlns="http://www.w3.org/2000/svg">
<path d="M23.518 9.98442C25.6638 13.1394 26.7235 16.6981 26.3274 20.7949C26.3257 20.8123 26.3167 20.8282 26.3024 20.8386C24.6775 22.0318 23.1031 22.756 21.5508 23.2362C21.5387 23.2399 21.5258 23.2396 21.5138 23.2356C21.5018 23.2316 21.4914 23.2239 21.484 23.2136C21.1254 22.7146 20.7996 22.1886 20.5141 21.6361C20.4977 21.6036 20.5127 21.5644 20.5464 21.5516C21.0639 21.3566 21.556 21.1229 22.0293 20.8462C22.0666 20.8244 22.069 20.7709 22.0346 20.7453C21.9341 20.6707 21.8346 20.5923 21.7394 20.514C21.7215 20.4995 21.6976 20.4966 21.6774 20.5064C18.6044 21.9254 15.238 21.9254 12.1287 20.5064C12.1085 20.4973 12.0845 20.5004 12.0672 20.5147C11.9722 20.593 11.8724 20.6707 11.7729 20.7453C11.7385 20.7709 11.7413 20.8244 11.7789 20.8462C12.2522 21.1177 12.7443 21.3566 13.2611 21.5525C13.2946 21.5654 13.3105 21.6036 13.2939 21.6361C13.0146 22.1893 12.6887 22.7153 12.3235 23.2143C12.3075 23.2345 12.2814 23.2438 12.2567 23.2362C10.7118 22.756 9.13739 22.0318 7.51242 20.8386C7.49888 20.8282 7.48915 20.8115 7.48772 20.7942C7.15665 17.2505 7.83138 13.6623 10.2945 9.98371C10.3004 9.97397 10.3095 9.96637 10.3199 9.96186C11.5319 9.40563 12.8303 8.99642 14.1873 8.76272C14.212 8.75892 14.2367 8.77032 14.2496 8.79217C14.4172 9.08904 14.6089 9.46976 14.7386 9.78088C16.169 9.56238 17.6218 9.56238 19.0822 9.78088C19.2119 9.47641 19.3969 9.08904 19.5639 8.79217C19.5698 8.78133 19.579 8.77265 19.5902 8.76736C19.6014 8.76207 19.6139 8.76045 19.6261 8.76272C20.9839 8.99713 22.2823 9.40634 23.4933 9.96186C23.504 9.96637 23.5128 9.97397 23.518 9.98442V9.98442ZM15.4658 16.7223C15.4808 15.6747 14.717 14.8078 13.7582 14.8078C12.8072 14.8078 12.0508 15.6671 12.0508 16.7223C12.0508 17.7773 12.8222 18.6365 13.7582 18.6365C14.7094 18.6365 15.4658 17.7773 15.4658 16.7223V16.7223ZM21.779 16.7223C21.794 15.6747 21.0302 14.8078 20.0716 14.8078C19.1205 14.8078 18.364 15.6671 18.364 16.7223C18.364 17.7773 19.1354 18.6365 20.0716 18.6365C21.0302 18.6365 21.779 17.7773 21.779 16.7223V16.7223Z" fill="white"/>
</svg>
