<svg width="33" height="33" viewBox="0 0 33 33" fill="none" xmlns="http://www.w3.org/2000/svg">
<path fill-rule="evenodd" clip-rule="evenodd" d="M9.86989 22.3278C8.3591 20.6156 7.60371 18.6372 7.60371 16.3926C7.60371 16.335 7.60731 16.2631 7.6145 16.1768C7.62171 16.0904 7.62529 16.0185 7.62529 15.9609C7.89868 15.9753 8.31594 15.9825 8.87709 15.9825C11.7548 15.9825 14.4311 15.5868 16.9059 14.7955C17.1073 15.1984 17.3159 15.6516 17.5318 16.1552C16.1073 16.4717 14.6469 17.2415 13.1505 18.4645C11.6541 19.6876 10.5605 20.9753 9.86989 22.3278ZM9.28716 14.2127C8.66847 14.2127 8.20084 14.1983 7.88428 14.1696C8.21523 12.9322 8.78718 11.8027 9.60011 10.7811C10.4131 9.75951 11.3879 8.96095 12.5246 8.3854C13.8339 9.68037 15.0354 11.2991 16.1289 13.2415C13.9706 13.889 11.6901 14.2127 9.28716 14.2127ZM16.6037 25.3926C14.5606 25.3926 12.726 24.7595 11.1001 23.4933C11.7476 22.2127 12.744 20.9897 14.0893 19.8243C15.4347 18.6588 16.7692 17.9322 18.0929 17.6444C18.9275 19.9466 19.4886 22.3278 19.7764 24.7883C18.726 25.1912 17.6685 25.3926 16.6037 25.3926ZM17.9203 12.594C16.8411 10.6372 15.6685 9.00411 14.4023 7.69475C15.1361 7.49332 15.8699 7.3926 16.6037 7.3926C18.762 7.3926 20.6757 8.08324 22.3447 9.46454C21.3519 10.7307 19.8771 11.7739 17.9203 12.594ZM19.431 15.8746C19.1577 15.1696 18.9131 14.5868 18.6972 14.1264C20.9275 13.148 22.5102 11.9609 23.4454 10.5653C24.7404 12.0904 25.4454 13.8314 25.5605 15.7883C24.6829 15.7451 23.798 15.7235 22.9059 15.7235C21.6541 15.7235 20.4958 15.7739 19.431 15.8746ZM21.4598 23.9466C21.2008 21.7019 20.7044 19.5149 19.9706 17.3854C20.9778 17.3135 21.8771 17.2775 22.6685 17.2775C23.5318 17.2775 24.4886 17.3135 25.539 17.3854C25.3951 18.7235 24.9634 19.9681 24.244 21.1192C23.5246 22.2703 22.5965 23.2127 21.4598 23.9466Z" fill="white"/>
</svg>
