<svg width="32" height="33" viewBox="0 0 32 33" fill="none" xmlns="http://www.w3.org/2000/svg">
<path fill-rule="evenodd" clip-rule="evenodd" d="M8.18896 16.3923C8.18896 13.2357 8.18896 11.6574 8.94114 10.5207C9.27703 10.013 9.71176 9.5783 10.2194 9.24241C11.3562 8.49023 12.9344 8.49023 16.091 8.49023C19.2475 8.49023 20.8258 8.49023 21.9626 9.24241C22.4702 9.5783 22.905 10.013 23.2408 10.5207C23.993 11.6574 23.993 13.2357 23.993 16.3923C23.993 19.5488 23.993 21.1271 23.2408 22.2639C22.905 22.7715 22.4702 23.2062 21.9626 23.5421C20.8258 24.2943 19.2475 24.2943 16.091 24.2943C12.9344 24.2943 11.3562 24.2943 10.2194 23.5421C9.71176 23.2062 9.27703 22.7715 8.94114 22.2639C8.18896 21.1271 8.18896 19.5488 8.18896 16.3923ZM20.1817 16.3926C20.1817 18.6519 18.3501 20.4835 16.0907 20.4835C13.8313 20.4835 11.9997 18.6519 11.9997 16.3926C11.9997 14.1332 13.8313 12.3016 16.0907 12.3016C18.3501 12.3016 20.1817 14.1332 20.1817 16.3926ZM16.0907 19.0994C17.5857 19.0994 18.7976 17.8875 18.7976 16.3926C18.7976 14.8976 17.5857 13.6857 16.0907 13.6857C14.5957 13.6857 13.3838 14.8976 13.3838 16.3926C13.3838 17.8875 14.5957 19.0994 16.0907 19.0994ZM20.3434 13.0571C20.8743 13.0571 21.3047 12.6268 21.3047 12.0959C21.3047 11.565 20.8743 11.1346 20.3434 11.1346C19.8125 11.1346 19.3822 11.565 19.3822 12.0959C19.3822 12.6268 19.8125 13.0571 20.3434 13.0571Z" fill="white"/>
</svg>
