<svg width="33" height="32" viewBox="0 0 33 32" fill="none" xmlns="http://www.w3.org/2000/svg">
<path d="M25.1819 11.1985H24.5017C24.2491 11.1985 23.892 11.5629 23.892 11.7961V20.2498C23.892 20.4832 24.2491 20.8015 24.5017 20.8015H25.1819V22.8082H19.0188V20.8015H20.3087V11.9151H20.2455L17.2332 22.8082H14.9011L11.9276 11.9151H11.8523V20.8015H13.1423V22.8082H7.98242V20.8015H8.64319C8.91523 20.8015 9.27238 20.4832 9.27238 20.2498V11.796C9.27238 11.5628 8.91523 11.1985 8.64319 11.1985H7.98242V9.19189H14.4345L16.5529 17.075H16.6113L18.7491 9.19189H25.1819V11.1985Z" fill="white"/>
</svg>
