<svg width="34" height="32" viewBox="0 0 34 32" fill="none" xmlns="http://www.w3.org/2000/svg">
<path fill-rule="evenodd" clip-rule="evenodd" d="M7.927 15.7312C7.927 10.7201 11.8566 7.00977 16.927 7.00977C21.9974 7.00977 25.927 10.7201 25.927 15.7312C25.927 20.7422 21.9974 24.4526 16.927 24.4526C16.0162 24.4526 15.1415 24.3332 14.3212 24.1071C14.1618 24.0636 13.9924 24.0764 13.8413 24.1432L12.0558 24.9302C11.5886 25.1346 11.0616 24.8035 11.0453 24.2934L10.9964 22.6942C10.9892 22.497 10.9005 22.3143 10.7538 22.1822C9.00264 20.6174 7.927 18.3525 7.927 15.7312ZM14.1672 14.0923L11.5234 18.2821C11.268 18.6837 11.7642 19.1378 12.1427 18.8501L14.9839 16.6955C15.0774 16.6248 15.1914 16.5864 15.3087 16.5861C15.4259 16.5858 15.5401 16.6235 15.634 16.6937L17.7364 18.2694C18.3666 18.7416 19.2684 18.5751 19.6885 17.9094L22.3306 13.7215C22.5859 13.3199 22.0897 12.8658 21.7113 13.1534L18.8718 15.3062C18.7783 15.3769 18.6643 15.4153 18.5471 15.4157C18.4298 15.416 18.3156 15.3782 18.2217 15.308L16.1193 13.7323C15.4891 13.2602 14.5873 13.4266 14.1672 14.0923Z" fill="white"/>
</svg>
