<svg width="34" height="32" viewBox="0 0 34 32" fill="none" xmlns="http://www.w3.org/2000/svg">
<path d="M10.2903 13.4606C10.2903 12.7048 10.4486 11.9543 10.7672 11.2111C11.0857 10.4679 11.541 9.7768 12.1349 9.14154C12.7288 8.50627 13.508 7.98979 14.4744 7.59387C15.4408 7.19796 16.5115 7 17.6867 7C19.5943 7 21.1599 7.58847 22.3837 8.76362C23.6074 9.93876 24.2193 11.3245 24.2193 12.9207C24.2193 14.9723 23.701 16.6675 22.6626 18.0046C21.6242 19.3417 20.2835 20.0112 18.6405 20.0112C18.1006 20.0112 17.5931 19.8852 17.1198 19.6333C16.6465 19.3813 16.3136 19.0754 16.121 18.7155L15.4012 21.5589C15.3418 21.7874 15.2626 22.0178 15.1672 22.2517C15.0718 22.4857 14.9657 22.7106 14.8523 22.9266C14.7389 23.1425 14.6237 23.3459 14.5104 23.5384C14.397 23.731 14.2818 23.9109 14.1684 24.0783C14.0551 24.2457 13.9561 24.3878 13.8715 24.5012C13.7869 24.6146 13.7095 24.7136 13.6376 24.7982L13.5296 24.9421C13.4936 24.9907 13.445 25.0087 13.3856 24.9961C13.3262 24.9835 13.2902 24.9475 13.2776 24.8881C13.2776 24.8755 13.2686 24.7928 13.2506 24.6362C13.2326 24.4796 13.2147 24.3159 13.1967 24.1413C13.1787 23.9667 13.1607 23.7418 13.1427 23.4664C13.1247 23.1911 13.1193 22.923 13.1247 22.6656C13.1301 22.4083 13.1481 22.1221 13.1787 21.8108C13.2093 21.4995 13.2542 21.2115 13.3136 20.947C13.445 20.3837 13.8895 18.5049 14.6453 15.3142C14.55 15.1216 14.4708 14.8913 14.4114 14.6214C14.352 14.3514 14.3214 14.1319 14.3214 13.9645L14.3034 13.6946C14.3034 12.9261 14.4978 12.2873 14.8883 11.778C15.2788 11.2687 15.7485 11.0131 16.301 11.0131C16.7455 11.0131 17.0892 11.1607 17.3358 11.454C17.5823 11.7474 17.7047 12.1163 17.7047 12.5608C17.7047 12.8361 17.6543 13.1763 17.5517 13.5776C17.4491 13.9789 17.3142 14.4414 17.1468 14.9633C16.9794 15.4852 16.8589 15.9081 16.7869 16.232C16.6663 16.7719 16.7725 17.2398 17.1018 17.6357C17.4311 18.0316 17.872 18.2296 18.4245 18.2296C19.3729 18.2296 20.1558 17.6933 20.773 16.6189C21.3903 15.5446 21.6998 14.247 21.6998 12.7228C21.6998 11.5584 21.3219 10.6082 20.5661 9.87038C19.8102 9.13254 18.7539 8.76362 17.3987 8.76362C15.8871 8.76362 14.6597 9.24951 13.7185 10.2213C12.7773 11.1931 12.3058 12.3574 12.3058 13.7125C12.3058 14.517 12.5344 15.1936 12.9897 15.7461C13.1463 15.9261 13.1931 16.1186 13.1337 16.322C13.1103 16.3814 13.0743 16.5199 13.0257 16.7359C12.9771 16.9518 12.9411 17.0904 12.9177 17.1498C12.8943 17.2812 12.8331 17.3694 12.7378 17.4108C12.6424 17.4521 12.5344 17.4503 12.4138 17.4018C11.7066 17.1138 11.1757 16.6189 10.8212 15.9171C10.4666 15.2152 10.2903 14.3964 10.2903 13.4606Z" fill="white"/>
</svg>
