<svg width="34" height="32" viewBox="0 0 34 32" fill="none" xmlns="http://www.w3.org/2000/svg">
<path fill-rule="evenodd" clip-rule="evenodd" d="M17.2366 25.0001C22.2074 25.0001 26.2367 20.9708 26.2367 16.0001C26.2367 11.0293 22.2074 7 17.2366 7C12.2659 7 8.23657 11.0293 8.23657 16.0001C8.23657 20.9708 12.2659 25.0001 17.2366 25.0001ZM15.8869 16.0001H18.4371C18.7952 16.0001 19.1385 15.8578 19.3917 15.6047C19.6449 15.3515 19.7871 15.0081 19.7871 14.6501C19.7871 14.292 19.6449 13.9486 19.3917 13.6955C19.1385 13.4423 18.7952 13.3 18.4371 13.3H15.8869V16.0001ZM14.0869 11.5H18.4371C19.2726 11.5 20.0738 11.8319 20.6645 12.4227C21.2553 13.0134 21.5871 13.8146 21.5871 14.6501C21.5871 15.4855 21.2553 16.2867 20.6645 16.8775C20.0738 17.4682 19.2726 17.8001 18.4371 17.8001H15.8869V20.5001H14.0869V11.5Z" fill="white"/>
</svg>
