<svg width="34" height="32" viewBox="0 0 34 32" fill="none" xmlns="http://www.w3.org/2000/svg">
<path d="M27.2185 16.1347C27.2216 16.343 27.1957 16.551 27.141 16.7521C27.0862 16.9532 27.0034 17.1459 26.8946 17.3238C26.7863 17.5018 26.6532 17.6637 26.4997 17.8047C26.3461 17.9458 26.1735 18.0644 25.9868 18.1572C25.991 18.2127 25.9944 18.2685 25.9963 18.3244C26.0009 18.4359 26.0009 18.5475 25.9963 18.659C25.9944 18.7148 25.991 18.7707 25.9868 18.8262C25.9868 22.2324 22.018 25 17.1215 25C12.2251 25 8.25625 22.2324 8.25625 18.8262C8.25207 18.7707 8.24865 18.7148 8.24675 18.659C8.24217 18.5475 8.24217 18.4359 8.24675 18.3244C8.24865 18.2685 8.25207 18.2127 8.25625 18.1572C7.96381 18.0227 7.70408 17.8264 7.49502 17.5817C7.28596 17.337 7.13256 17.0498 7.04545 16.7399C6.95848 16.43 6.93995 16.1048 6.99115 15.7869C7.04235 15.4691 7.16206 15.1662 7.34197 14.8992C7.52172 14.6323 7.7574 14.4076 8.03265 14.2409C8.30791 14.0741 8.61614 13.9693 8.93597 13.9336C9.25584 13.8977 9.57969 13.9319 9.88506 14.0336C10.1904 14.1354 10.47 14.3023 10.7045 14.5228C11.1397 14.2278 11.5957 13.9647 12.0689 13.7355C12.5422 13.5067 13.0314 13.312 13.5328 13.1539C14.0343 12.9957 14.5467 12.8745 15.0656 12.7905C15.5846 12.7064 16.1092 12.6604 16.6349 12.6525L17.7602 7.37587C17.7727 7.31466 17.7975 7.25688 17.8328 7.20518C17.8678 7.15385 17.913 7.10976 17.9651 7.07592C18.0176 7.04209 18.0761 7.0189 18.1377 7.00749C18.1989 6.99647 18.262 6.99761 18.3228 7.01091L22.0484 7.75602C22.4244 7.11014 23.2136 6.83338 23.9104 7.10253C24.6072 7.37168 25.0056 8.10729 24.8498 8.83795C24.6943 9.56862 24.0305 10.078 23.2847 10.0396C22.5384 10.0012 21.9305 9.42644 21.8507 8.68361L18.5966 7.99933L17.6081 12.7437C18.1274 12.7547 18.6456 12.8034 19.158 12.8889C20.1843 13.06 21.1804 13.3783 22.1157 13.834C22.5828 14.0613 23.0329 14.322 23.4626 14.6141C23.7715 14.3175 24.1597 14.1167 24.5802 14.0359C25.0008 13.9548 25.4359 13.9972 25.8329 14.1579C26.2299 14.3185 26.572 14.5907 26.8179 14.9414C27.0638 15.2922 27.2029 15.7066 27.2185 16.1347V16.1347ZM12.1278 18.2374C12.2046 18.4217 12.3163 18.5894 12.4578 18.7304C12.5988 18.8718 12.7664 18.9836 12.9508 19.0604C13.1354 19.1367 13.3331 19.176 13.5328 19.176C14.1479 19.176 14.7022 18.8053 14.9379 18.2374C15.1732 17.669 15.0428 17.0152 14.6079 16.5803C14.173 16.1454 13.5192 16.015 12.9508 16.2503C12.3829 16.486 12.0122 17.0402 12.0122 17.6553C12.0122 17.8549 12.0514 18.0526 12.1278 18.2374V18.2374ZM20.8372 21.8876C20.9151 21.8116 20.9596 21.7078 20.9611 21.5991C20.9627 21.49 20.9205 21.3851 20.8444 21.3071C20.7684 21.2292 20.6646 21.1847 20.5559 21.1832C20.4468 21.1817 20.3419 21.2239 20.254 21.2897C20.0254 21.4537 19.7832 21.598 19.5302 21.7211C19.2772 21.8443 19.0142 21.9459 18.7441 22.0249C18.4741 22.1036 18.1978 22.1595 17.9183 22.1918C17.6386 22.2241 17.3569 22.2324 17.0759 22.2172C16.7954 22.2298 16.514 22.2184 16.2354 22.1834C15.9567 22.1488 15.6814 22.0903 15.4127 22.0085C15.1436 21.9272 14.8824 21.823 14.6311 21.6976C14.3798 21.5721 14.1396 21.4254 13.913 21.2592C13.8343 21.1946 13.7343 21.1615 13.6324 21.1665C13.5306 21.1714 13.4344 21.2144 13.3622 21.2862C13.2903 21.3585 13.2473 21.4546 13.2424 21.5565C13.2375 21.6584 13.2705 21.7584 13.3352 21.8371C13.6024 22.0386 13.8864 22.2165 14.1841 22.3693C14.4817 22.5221 14.7923 22.6487 15.1116 22.7483C15.431 22.8479 15.7583 22.9198 16.0902 22.9635C16.422 23.0068 16.757 23.0217 17.0911 23.008C17.4253 23.0217 17.7602 23.0068 18.0921 22.9635C18.7568 22.8761 19.4015 22.6751 19.9982 22.3693C20.2959 22.2165 20.5798 22.0386 20.8471 21.8371L20.8372 21.8876ZM20.5582 19.2976C20.7642 19.2999 20.9687 19.26 21.1592 19.1809C21.3497 19.1015 21.5219 18.9844 21.6656 18.8365C21.8093 18.6886 21.921 18.513 21.9948 18.3202C22.0686 18.1277 22.1023 17.9222 22.094 17.7162C22.094 17.1011 21.7234 16.5468 21.1554 16.3111C20.5871 16.0758 19.9332 16.2062 19.4983 16.6411C19.0634 17.076 18.933 17.7299 19.1683 18.2982C19.404 18.8661 19.9583 19.2368 20.5734 19.2368L20.5582 19.2976Z" fill="white"/>
</svg>
