<svg width="34" height="32" viewBox="0 0 34 32" fill="none" xmlns="http://www.w3.org/2000/svg">
<path d="M25.5646 20.4893C22.9843 20.0644 21.8287 17.4283 21.781 17.3158L21.7756 17.3059C21.7022 17.1861 21.656 17.0516 21.6401 16.912C21.6243 16.7724 21.6392 16.631 21.6838 16.4977C21.8566 16.0891 22.4308 15.9073 22.8097 15.7867C22.9051 15.757 22.9942 15.7282 23.0644 15.7003C23.7511 15.4303 23.8906 15.1486 23.887 14.9605C23.869 14.8435 23.8166 14.7346 23.7364 14.6476C23.6563 14.5606 23.552 14.4994 23.437 14.4718L23.4307 14.47C23.3289 14.4288 23.2201 14.4077 23.1103 14.4079C23.0134 14.4065 22.9174 14.4258 22.8286 14.4646C22.5606 14.6001 22.2685 14.6814 21.9691 14.704C21.7962 14.708 21.6274 14.6513 21.4921 14.5438L21.5209 14.0668L21.5245 14.0083C21.6979 12.7956 21.6244 11.5603 21.3085 10.3767C20.9358 9.52682 20.321 8.80554 19.5408 8.30294C18.7607 7.80034 17.8498 7.5387 16.9218 7.55069L16.56 7.55519C15.6337 7.54381 14.7245 7.8055 13.946 8.30761C13.1675 8.80971 12.5541 9.52998 12.1823 10.3785C11.866 11.5608 11.7919 12.7948 11.9645 14.0065C11.9765 14.1859 11.9873 14.3653 11.9969 14.5447C11.8477 14.6615 11.6603 14.7186 11.4713 14.7049C11.1533 14.6912 10.842 14.6089 10.5587 14.4637C10.4893 14.433 10.4141 14.4179 10.3382 14.4196C10.1819 14.4136 10.0275 14.4566 9.89683 14.5426C9.76612 14.6286 9.66556 14.7533 9.60921 14.8993C9.53541 15.2863 10.088 15.568 10.4246 15.7003C10.4966 15.7291 10.5848 15.757 10.6793 15.7867C11.0591 15.9073 11.6333 16.0891 11.8061 16.4977C11.8506 16.631 11.8654 16.7724 11.8496 16.912C11.8337 17.0516 11.7876 17.186 11.7143 17.3059L11.7089 17.3158C11.4604 17.8576 11.1364 18.3614 10.7468 18.8125C10.039 19.6926 9.03751 20.2879 7.92618 20.4893C7.87375 20.498 7.82639 20.5258 7.79318 20.5674C7.75997 20.6089 7.74324 20.6612 7.74618 20.7143C7.74821 20.7545 7.75735 20.7942 7.77318 20.8313C7.93248 21.2012 8.72629 21.5063 10.0709 21.7142C10.1969 21.734 10.2491 21.9392 10.3229 22.274C10.3517 22.409 10.3823 22.5485 10.4246 22.6925C10.4387 22.7563 10.4759 22.8126 10.5291 22.8505C10.5823 22.8884 10.6477 22.9052 10.7126 22.8977C10.8411 22.8907 10.9688 22.8726 11.0942 22.8437C11.4255 22.7714 11.7632 22.7331 12.1022 22.7294C12.3462 22.7298 12.5897 22.7503 12.8303 22.7906C13.338 22.9191 13.8101 23.1603 14.2119 23.4962C14.8899 24.0752 15.7421 24.411 16.6329 24.4502C16.6626 24.4502 16.6932 24.4493 16.7229 24.4466C16.7589 24.4484 16.8084 24.4502 16.8588 24.4502C17.7502 24.4111 18.6029 24.0753 19.2816 23.4962C19.6828 23.1604 20.1543 22.9193 20.6614 22.7906C20.9017 22.7504 21.1449 22.73 21.3886 22.7294C21.7273 22.7311 22.065 22.767 22.3966 22.8365C22.5224 22.8638 22.6504 22.8798 22.7791 22.8842H22.8007C22.8614 22.889 22.9219 22.8716 22.9707 22.8352C23.0196 22.7987 23.0535 22.7458 23.0662 22.6862C23.1054 22.5489 23.1397 22.4102 23.1688 22.2704C23.2417 21.9365 23.2948 21.7322 23.4208 21.7124C24.7654 21.5054 25.5601 21.1994 25.7167 20.8322C25.7331 20.7951 25.7428 20.7555 25.7455 20.7152C25.7485 20.6621 25.7317 20.6098 25.6985 20.5683C25.6653 20.5267 25.6179 20.4989 25.5655 20.4902L25.5646 20.4893Z" fill="white"/>
<path fill-rule="evenodd" clip-rule="evenodd" d="M26.1428 19.653C26.2708 19.7277 26.3852 19.8258 26.4794 19.9436C26.6664 20.1773 26.7606 20.4717 26.744 20.7706L26.7434 20.7817L26.7433 20.7817C26.733 20.9364 26.696 21.0882 26.6341 21.2303C26.4963 21.5493 26.2621 21.7671 26.0604 21.9105C25.8518 22.0588 25.6131 22.1736 25.3726 22.2659C25.0205 22.4011 24.5973 22.5132 24.1189 22.6062C24.0933 22.718 24.0649 22.8291 24.0338 22.9395C23.9636 23.218 23.7996 23.4645 23.5685 23.6368C23.3398 23.8074 23.0602 23.8943 22.7761 23.8842H22.7619L22.7447 23.8836C22.5578 23.8772 22.3718 23.8541 22.1889 23.8147C21.9252 23.7596 21.6566 23.731 21.3872 23.7294C21.2134 23.73 21.0398 23.7436 20.8681 23.7702C20.5227 23.8639 20.2016 24.031 19.9266 24.2604C19.079 24.982 18.0149 25.4004 16.9027 25.4492L16.8807 25.4502H16.8588C16.814 25.4502 16.7711 25.4492 16.7338 25.4479C16.6961 25.4497 16.6619 25.4502 16.6329 25.4502H16.6109L16.589 25.4492C15.4773 25.4003 14.4139 24.982 13.5669 24.2605C13.2914 24.0309 12.9697 23.8638 12.6238 23.7702C12.4527 23.7437 12.2798 23.73 12.1067 23.7294C11.8396 23.7327 11.5736 23.7629 11.3126 23.8196C11.1403 23.859 10.9651 23.8842 10.7887 23.895C10.4908 23.9202 10.193 23.8389 9.94885 23.6649C9.70617 23.492 9.53281 23.2392 9.45856 22.9517C9.42319 22.8288 9.3952 22.7116 9.37204 22.6076C8.89398 22.5144 8.47095 22.4022 8.11885 22.2669C7.87814 22.1744 7.63928 22.0594 7.43043 21.9107C7.22682 21.7658 6.99249 21.5467 6.85473 21.2268L6.85339 21.2237C6.79128 21.0781 6.75541 20.9227 6.74745 20.7646C6.73221 20.4675 6.82641 20.175 7.01231 19.9427C7.19727 19.7115 7.46014 19.5558 7.75154 19.5046C8.62464 19.3455 9.41132 18.8774 9.96759 18.1858L9.97858 18.1721L9.99004 18.1589C10.3181 17.7791 10.5908 17.3549 10.8 16.8988L10.8025 16.8934C10.6899 16.8411 10.5519 16.7954 10.378 16.7402C10.3776 16.7401 10.3771 16.7399 10.3767 16.7398L10.3695 16.7376C10.2855 16.7112 10.1652 16.6734 10.0561 16.6299C9.85535 16.5509 9.52718 16.4048 9.24241 16.1794C8.99449 15.9832 8.4806 15.4792 8.62691 14.712L8.64381 14.6233L8.67632 14.5391C8.80776 14.1987 9.04229 13.9078 9.34714 13.7072C9.64411 13.5118 9.99334 13.4116 10.3483 13.4195C10.5391 13.4193 10.7281 13.4552 10.9055 13.525C10.8146 12.3821 10.9192 11.2305 11.2163 10.1201L11.2359 10.0468L11.2664 9.97726C11.7169 8.94879 12.4604 8.0758 13.404 7.46723C14.344 6.861 15.4411 6.54392 16.5593 6.55512L16.9089 6.55077C16.909 6.55077 16.9092 6.55077 16.9094 6.55076C18.0336 6.53634 19.1372 6.85337 20.0824 7.46229C21.0277 8.07129 21.7727 8.94529 22.2243 9.97513L22.2549 10.0451L22.2746 10.1188C22.568 11.2179 22.673 12.3572 22.5868 13.4883C22.7576 13.4334 22.9364 13.4062 23.1165 13.4079C23.329 13.4085 23.5396 13.4456 23.7392 13.5175C24.0199 13.5983 24.2736 13.7547 24.4721 13.9702C24.6867 14.2033 24.8271 14.4951 24.8753 14.8083L24.8855 14.8744L24.8868 14.9413C24.9029 15.7842 24.2257 16.3178 23.432 16.6303C23.3236 16.6733 23.2029 16.7116 23.1101 16.7405C22.9373 16.7955 22.8001 16.841 22.6879 16.8931L22.7016 16.9254C22.7016 16.9254 22.7016 16.9254 22.7017 16.9256C22.7044 16.9317 22.768 17.0782 22.8958 17.3001C23.0281 17.5296 23.2239 17.8306 23.4849 18.1377C24.0134 18.7593 24.7529 19.3422 25.7271 19.5025L26.0449 19.5549L26.1428 19.653ZM21.6838 16.4977C21.8561 16.0902 22.4277 15.9083 22.8066 15.7877L22.8097 15.7867C22.9051 15.757 22.9942 15.7282 23.0644 15.7003C23.7511 15.4303 23.8906 15.1486 23.887 14.9605C23.869 14.8435 23.8166 14.7346 23.7364 14.6476C23.6563 14.5606 23.552 14.4994 23.437 14.4718L23.4307 14.47C23.3289 14.4288 23.2201 14.4077 23.1103 14.4079C23.0134 14.4065 22.9174 14.4258 22.8286 14.4646C22.7194 14.5197 22.6063 14.5659 22.4903 14.6028C22.4893 14.6032 22.4882 14.6035 22.4871 14.6039C22.3193 14.657 22.1455 14.6907 21.9691 14.704C21.7962 14.708 21.6274 14.6513 21.4921 14.5438L21.5209 14.0668L21.5245 14.0083C21.6979 12.7956 21.6244 11.5603 21.3085 10.3767C20.9358 9.52682 20.321 8.80554 19.5408 8.30294C18.7607 7.80034 17.8498 7.5387 16.9218 7.55069L16.56 7.55519C15.6337 7.54381 14.7245 7.8055 13.946 8.30761C13.1675 8.80971 12.5541 9.52998 12.1823 10.3785C11.866 11.5608 11.7919 12.7948 11.9645 14.0065C11.9765 14.1859 11.9873 14.3653 11.9969 14.5447C11.8477 14.6615 11.6603 14.7186 11.4713 14.7049C11.1533 14.6912 10.842 14.6089 10.5587 14.4637C10.4893 14.433 10.4141 14.4179 10.3382 14.4196C10.1819 14.4136 10.0275 14.4566 9.89683 14.5426C9.76612 14.6286 9.66556 14.7533 9.6092 14.8993C9.5354 15.2863 10.088 15.568 10.4246 15.7003C10.4966 15.7291 10.5848 15.757 10.6793 15.7867L10.681 15.7872C11.0608 15.9078 11.6336 16.0897 11.8061 16.4977C11.8506 16.631 11.8654 16.7724 11.8496 16.912C11.8337 17.0516 11.7876 17.186 11.7143 17.3059L11.7089 17.3158C11.4604 17.8576 11.1364 18.3614 10.7468 18.8125C10.1916 19.5028 9.45586 20.0179 8.62812 20.3051C8.624 20.3065 8.61988 20.3079 8.61575 20.3094C8.39199 20.3863 8.16155 20.4466 7.92618 20.4893C7.87375 20.498 7.82639 20.5258 7.79318 20.5674C7.75997 20.6089 7.74324 20.6612 7.74618 20.7143C7.74821 20.7545 7.75735 20.7942 7.77318 20.8313L7.77306 20.8313L7.77318 20.8313C7.81519 20.9288 7.90134 21.0219 8.03008 21.1098C8.03329 21.112 8.03653 21.1142 8.0398 21.1164C8.14654 21.1879 8.28159 21.256 8.44411 21.3204C8.48487 21.3366 8.52736 21.3525 8.57157 21.3682C8.94902 21.502 9.45153 21.6184 10.0709 21.7142C10.1969 21.734 10.2491 21.9392 10.3229 22.274C10.3517 22.409 10.3823 22.5485 10.4246 22.6925C10.4387 22.7563 10.4759 22.8126 10.5291 22.8505C10.5823 22.8884 10.6477 22.9052 10.7126 22.8977C10.8411 22.8907 10.9688 22.8726 11.0942 22.8437C11.4255 22.7714 11.7632 22.7331 12.1022 22.7294C12.3462 22.7298 12.5897 22.7503 12.8303 22.7906C13.338 22.9191 13.8101 23.1603 14.2119 23.4962C14.8899 24.0752 15.7421 24.411 16.6329 24.4502C16.6626 24.4502 16.6932 24.4493 16.7229 24.4466C16.7589 24.4484 16.8084 24.4502 16.8588 24.4502C17.7502 24.4111 18.6029 24.0753 19.2816 23.4962C19.6828 23.1604 20.1543 22.9193 20.6614 22.7906C20.9017 22.7504 21.1449 22.73 21.3886 22.7294C21.7273 22.7311 22.065 22.767 22.3966 22.8365C22.5224 22.8638 22.6504 22.8798 22.7791 22.8842H22.8007C22.8614 22.889 22.9219 22.8716 22.9707 22.8352C23.0196 22.7987 23.0535 22.7458 23.0662 22.6862C23.1054 22.5489 23.1397 22.4102 23.1688 22.2704C23.2417 21.9365 23.2948 21.7322 23.4208 21.7124C24.0347 21.6179 24.5339 21.5027 24.9102 21.3705C24.9406 21.3598 24.9702 21.3491 24.999 21.3381C25.0149 21.3321 25.0305 21.3261 25.0459 21.32C25.2145 21.2534 25.3535 21.1829 25.4619 21.1088C25.4622 21.1086 25.4625 21.1084 25.4627 21.1083C25.5904 21.0209 25.6756 20.9286 25.7167 20.8322C25.7331 20.7951 25.7428 20.7555 25.7455 20.7152C25.7485 20.6621 25.7317 20.6098 25.6985 20.5683C25.6653 20.5267 25.6179 20.4989 25.5655 20.4902L25.5646 20.4893C25.3209 20.4491 25.09 20.3893 24.8714 20.3137C24.8663 20.312 24.8612 20.3102 24.8561 20.3084C22.7713 19.5785 21.8241 17.4174 21.781 17.3158L21.7756 17.3059C21.7022 17.1861 21.656 17.0516 21.6401 16.912C21.6243 16.7724 21.6392 16.631 21.6838 16.4977ZM24.9091 20.2747C24.9092 20.2747 24.908 20.2757 24.9053 20.2777C24.9077 20.2757 24.909 20.2747 24.9091 20.2747ZM8.58256 20.2755C8.58262 20.2755 8.58388 20.2764 8.58613 20.2784C8.58361 20.2765 8.58249 20.2755 8.58256 20.2755ZM23.1165 13.4079C23.1192 13.4079 23.122 13.4079 23.1247 13.408L23.1103 14.4078L23.1089 13.4079C23.1114 13.4079 23.1139 13.4079 23.1165 13.4079Z" fill="black"/>
</svg>
