<svg width="34" height="33" viewBox="0 0 34 33" fill="none" xmlns="http://www.w3.org/2000/svg">
<path d="M7.25488 20.1442C7.25488 20.3911 7.34486 20.5778 7.52478 20.7043C7.70471 20.8308 7.89704 20.8755 8.10179 20.8385C8.29412 20.8015 8.42907 20.7336 8.50665 20.6349C8.58419 20.5361 8.62298 20.3726 8.62298 20.1442V17.4597C8.62298 17.2684 8.55629 17.1064 8.42289 16.9737C8.2895 16.841 8.12664 16.7747 7.93429 16.7747C7.74815 16.7747 7.5884 16.841 7.45499 16.9737C7.32159 17.1064 7.25488 17.2684 7.25488 17.4597V20.1442ZM9.39541 21.2921C9.39541 21.4711 9.45902 21.6053 9.5862 21.6948C9.7134 21.7843 9.87627 21.8291 10.0748 21.8291C10.2795 21.8291 10.4455 21.7843 10.5727 21.6948C10.6999 21.6054 10.7635 21.4711 10.7635 21.2921V15.0343C10.7635 14.8492 10.6968 14.6903 10.5634 14.5576C10.43 14.4249 10.2671 14.3586 10.0748 14.3586C9.88867 14.3586 9.72889 14.4249 9.59551 14.5576C9.4621 14.6903 9.39541 14.8492 9.39541 15.0343V21.2921V21.2921ZM11.5266 21.5884C11.5266 21.7673 11.5918 21.9016 11.7221 21.9911C11.8524 22.0805 12.0199 22.1253 12.2247 22.1253C12.4232 22.1253 12.5861 22.0805 12.7132 21.9911C12.8404 21.9016 12.904 21.7673 12.904 21.5884V15.8767C12.904 15.6854 12.8373 15.5219 12.7039 15.3861C12.5705 15.2503 12.4108 15.1825 12.2247 15.1825C12.0323 15.1825 11.8679 15.2503 11.7314 15.3861C11.5949 15.5219 11.5267 15.6854 11.5267 15.8767V21.5884H11.5266ZM13.6672 21.6161C13.6672 21.9556 13.8967 22.1253 14.3559 22.1253C14.815 22.1253 15.0445 21.9556 15.0445 21.6161V12.359C15.0445 11.8406 14.8863 11.5475 14.5699 11.4796C14.3651 11.4302 14.1635 11.4889 13.965 11.6555C13.7664 11.8221 13.6671 12.0566 13.6671 12.359V21.6161H13.6672ZM15.8449 21.8846V11.8129C15.8449 11.492 15.9411 11.3007 16.1335 11.2389C16.5491 11.1402 16.9617 11.0908 17.3712 11.0908C18.3205 11.0908 19.2046 11.313 20.0236 11.7573C20.8426 12.2017 21.5049 12.808 22.0106 13.5763C22.5163 14.3447 22.8094 15.1917 22.8901 16.1174C23.2685 15.957 23.6718 15.8768 24.0999 15.8768C24.9685 15.8768 25.7115 16.1822 26.3289 16.7932C26.9462 17.4042 27.2549 18.1386 27.2549 18.9964C27.2549 19.8604 26.9462 20.5979 26.3289 21.2089C25.7115 21.8198 24.9716 22.1253 24.1092 22.1253L16.0124 22.116C15.9566 22.0975 15.9147 22.0636 15.8868 22.0142C15.8588 21.9649 15.8449 21.9216 15.8449 21.8846V21.8846Z" fill="white"/>
</svg>
