<svg width="34" height="32" viewBox="0 0 34 32" fill="none" xmlns="http://www.w3.org/2000/svg">
<path fill-rule="evenodd" clip-rule="evenodd" d="M25.413 17.47C25.503 16.99 25.533 16.51 25.533 16C25.533 11.32 21.753 7.54004 17.073 7.54004C16.563 7.54004 16.083 7.57001 15.603 7.65997C14.853 7.24002 14.013 7 13.113 7C10.323 7 8.073 9.24998 8.073 12.04C8.073 12.94 8.31302 13.81 8.73297 14.53C8.643 15.01 8.61304 15.49 8.61304 16C8.61304 20.68 12.393 24.46 17.073 24.46C17.583 24.46 18.063 24.43 18.543 24.34C19.293 24.76 20.133 25 21.033 25C23.823 25 26.073 22.75 26.073 19.96C26.073 19.06 25.833 18.22 25.413 17.47H25.413ZM15.5506 8.99451L15.5252 8.97759L15.5531 8.97199C15.5521 8.9795 15.5512 8.98701 15.5506 8.99451ZM16.7128 14.77L18.6028 15.19C20.7028 15.67 21.2428 16.87 21.2728 18.0699C21.2728 19.87 19.8928 21.25 17.1328 21.25C14.2528 21.25 12.9329 19.78 12.9329 18.7C12.9329 18.1599 13.3828 17.77 13.9228 17.77C14.4417 17.77 14.683 18.0957 14.962 18.4723C15.3442 18.9883 15.7973 19.5999 17.1328 19.5999C18.3028 19.5999 18.9928 18.88 18.9928 18.22C18.9928 17.83 18.7528 17.38 17.9728 17.1999L15.3928 16.5399C13.3228 16 12.9629 14.86 12.9629 13.81C12.9629 11.59 15.0029 10.81 16.9228 10.81C18.7228 10.81 20.8228 11.8 20.8228 13.1199C20.8228 13.69 20.3428 13.99 19.8028 13.99C19.3697 13.99 19.1459 13.7399 18.8828 13.446C18.5083 13.0274 18.0542 12.52 16.8028 12.52C15.7528 12.52 15.1828 13 15.1828 13.69C15.1828 14.38 15.9929 14.59 16.7128 14.77Z" fill="white"/>
</svg>
