<svg width="33" height="32" viewBox="0 0 33 32" fill="none" xmlns="http://www.w3.org/2000/svg">
<path d="M7.52225 15.0403C7.52225 15.0403 15.4832 11.7732 18.2442 10.6227C19.3026 10.1626 22.892 8.68998 22.892 8.68998C22.892 8.68998 24.5486 8.04577 24.4105 9.61033C24.3645 10.2546 23.9964 12.5094 23.6282 14.9483C23.076 18.3996 22.4778 22.173 22.4778 22.173C22.4778 22.173 22.3858 23.2314 21.6035 23.4155C20.8212 23.5995 19.5327 22.7713 19.3026 22.5872C19.1185 22.4491 15.8513 20.3783 14.6549 19.366C14.3328 19.0899 13.9646 18.5377 14.7009 17.8934C16.3575 16.3749 18.3362 14.4882 19.5327 13.2917C20.0849 12.7395 20.6371 11.451 18.3362 13.0156C15.0691 15.2704 11.8479 17.3872 11.8479 17.3872C11.8479 17.3872 11.1116 17.8474 9.73107 17.4332C8.35051 17.0191 6.73991 16.4669 6.73991 16.4669C6.73991 16.4669 5.63556 15.7766 7.52225 15.0403V15.0403Z" fill="white"/>
</svg>
