<svg width="34" height="33" viewBox="0 0 34 33" fill="none" xmlns="http://www.w3.org/2000/svg">
<path d="M8.96997 23.2396L9.03351 23.4167C9.02556 23.3974 9.00174 23.3358 8.96997 23.2396ZM11.5471 19.2018C11.6623 18.2433 12.0515 17.7083 12.7821 17.1579C13.8305 16.415 15.1369 16.8345 15.1369 16.8345V14.3364C15.4546 14.3287 15.7723 14.3479 16.086 14.3941V17.6082C16.086 17.6082 14.7795 17.1887 13.7312 17.9316C13.0005 18.482 12.6114 19.017 12.4962 19.9755C12.4922 20.4951 12.5875 21.1764 13.0323 21.7615C12.9211 21.7038 12.8099 21.6383 12.6948 21.5652C11.7219 20.9031 11.5432 19.9062 11.5471 19.2018ZM21.4905 9.71734C20.7718 8.92056 20.4978 8.11222 20.3985 7.54639H21.3039C21.3039 7.54639 21.1252 9.03218 22.4396 10.491L22.4594 10.5103C22.102 10.287 21.7764 10.0176 21.4905 9.71734V9.71734ZM25.8546 11.9807V15.1293C25.8546 15.1293 24.6991 15.0831 23.8413 14.8637C22.6461 14.5558 21.8797 14.0823 21.8797 14.0823C21.8797 14.0823 21.3475 13.7436 21.3078 13.7205V20.2257C21.3078 20.5875 21.2086 21.4921 20.9107 22.2465C20.5216 23.2319 19.918 23.8824 19.8068 24.0133C19.8068 24.0133 19.0722 24.8909 17.7816 25.4799C16.6181 26.0111 15.5936 25.9995 15.2878 26.0111C15.2878 26.0111 13.5207 26.0803 11.9284 25.0372C11.5829 24.8062 11.2612 24.5445 10.9674 24.2558L10.9753 24.2635C12.5677 25.3105 14.3348 25.2374 14.3348 25.2374C14.6405 25.2258 15.6651 25.2374 16.8286 24.7062C18.1191 24.1172 18.8538 23.2396 18.8538 23.2396C18.965 23.1087 19.5685 22.4582 19.9577 21.4728C20.2555 20.7184 20.3548 19.8138 20.3548 19.452V12.9507C20.3985 12.9738 20.9266 13.3125 20.9266 13.3125C20.9266 13.3125 21.693 13.786 22.8883 14.0939C23.746 14.3133 24.9016 14.3595 24.9016 14.3595V11.8921C25.2987 11.9807 25.6362 12.0038 25.8546 11.9807V11.9807Z" fill="#EE1D52"/>
<path d="M24.9017 11.8883V14.3556C24.9017 14.3556 23.7461 14.3094 22.8884 14.09C21.6931 13.7821 20.9267 13.3087 20.9267 13.3087C20.9267 13.3087 20.3946 12.9699 20.3549 12.9468V19.452C20.3549 19.8138 20.2556 20.7184 19.9578 21.4728C19.5686 22.4582 18.965 23.1087 18.8538 23.2396C18.8538 23.2396 18.1192 24.1172 16.8286 24.7062C15.6651 25.2374 14.6406 25.2258 14.3348 25.2374C14.3348 25.2374 12.5678 25.3066 10.9754 24.2635L10.9674 24.2558C10.8007 24.0903 10.6418 23.9171 10.4949 23.7362C9.98661 23.1087 9.67688 22.3697 9.59746 22.158V22.1541C9.47039 21.7885 9.2083 20.9031 9.24404 20.0525C9.30758 18.5474 9.83175 17.6198 9.97073 17.3888C10.3361 16.7575 10.8166 16.1917 11.3804 15.7183C11.8808 15.3102 12.4486 14.9831 13.0562 14.756C13.7154 14.4865 14.4222 14.3441 15.137 14.3325V16.8307C15.137 16.8307 13.8305 16.4111 12.7822 17.154C12.0515 17.7045 11.6624 18.2395 11.5472 19.1979C11.5432 19.9024 11.7219 20.8993 12.6988 21.5652C12.814 21.6383 12.9251 21.7038 13.0363 21.7615C13.2071 21.9848 13.4136 22.1811 13.6518 22.3428C14.6088 22.9548 15.407 22.9971 16.4315 22.6006C17.1145 22.3351 17.6268 21.7384 17.8651 21.0725C18.016 20.6568 18.012 20.2411 18.012 19.81V7.54639H20.3946C20.4939 8.11222 20.7639 8.92055 21.4866 9.71734C21.7765 10.0176 22.1021 10.287 22.4555 10.5103C22.5588 10.6219 23.0949 11.1608 23.7858 11.4957C24.1392 11.6689 24.5165 11.7998 24.9017 11.8883V11.8883Z" fill="white"/>
<path d="M8.64844 21.3955L8.708 21.561C8.70006 21.5418 8.67623 21.484 8.64844 21.3955Z" fill="#69C9D0"/>
<path d="M13.0562 14.7597C12.4447 14.9868 11.8808 15.314 11.3805 15.722C10.8126 16.1955 10.3361 16.7652 9.97077 17.3964C9.83179 17.6274 9.30762 18.5512 9.24408 20.0601C9.20834 20.9146 9.4744 21.7961 9.5975 22.1618V22.1656C9.67692 22.3735 9.98666 23.1164 10.4949 23.7438C10.6419 23.9247 10.8007 24.0979 10.9675 24.2634C10.4274 23.9016 9.95092 23.4666 9.54191 22.9701C9.03759 22.3504 8.72785 21.6152 8.64843 21.3996V21.3919C8.52136 21.0262 8.2553 20.1409 8.29501 19.2864C8.35855 17.7814 8.88272 16.8537 9.02171 16.6227C9.38704 15.9915 9.86356 15.4218 10.4314 14.9483C10.9318 14.5403 11.4996 14.2131 12.1072 13.986C12.4884 13.8321 12.8855 13.7204 13.2905 13.6473C13.9021 13.5434 14.5255 13.5357 15.141 13.6204V14.3363C14.4223 14.3479 13.7154 14.4903 13.0562 14.7597V14.7597Z" fill="#69C9D0"/>
<path d="M20.3985 7.54615H18.0159V19.8097C18.0159 20.2409 18.0159 20.6566 17.869 21.0723C17.6268 21.7343 17.1145 22.3348 16.4355 22.6004C15.411 23.0007 14.6088 22.9545 13.6558 22.3425C13.4175 22.1847 13.211 21.9884 13.0403 21.7651C13.8543 22.1847 14.581 22.177 15.4824 21.8267C16.1655 21.5611 16.6777 20.9607 16.916 20.2986C17.0669 19.8829 17.0629 19.4672 17.0629 19.036V6.77246H20.3548C20.3509 6.77246 20.3151 7.07655 20.3985 7.54615V7.54615ZM24.9016 11.2068V11.8881C24.5164 11.7995 24.1392 11.6687 23.7858 11.4954C23.0988 11.1644 22.5627 10.6217 22.4555 10.51C22.5786 10.587 22.7017 10.6563 22.8327 10.7218C23.6746 11.1259 24.4966 11.2491 24.9016 11.2068Z" fill="#69C9D0"/>
</svg>
