<svg width="34" height="33" viewBox="0 0 34 33" fill="none" xmlns="http://www.w3.org/2000/svg">
<path fill-rule="evenodd" clip-rule="evenodd" d="M8.65502 10.1775C8.09082 11.2848 8.09082 12.7343 8.09082 15.6334V17.583C8.09082 20.4821 8.09082 21.9317 8.65502 23.039C9.15131 24.013 9.94321 24.8049 10.9172 25.3012C12.0245 25.8654 13.4741 25.8654 16.3732 25.8654H17.8085C20.7076 25.8654 22.1571 25.8654 23.2644 25.3012C24.2384 24.8049 25.0303 24.013 25.5266 23.039C26.0908 21.9317 26.0908 20.4821 26.0908 17.583V15.6334C26.0908 12.7343 26.0908 11.2848 25.5266 10.1775C25.0303 9.20346 24.2384 8.41156 23.2644 7.91528C22.1571 7.35107 20.7076 7.35107 17.8085 7.35107H16.3732C13.4741 7.35107 12.0245 7.35107 10.9172 7.91528C9.94321 8.41156 9.15131 9.20346 8.65502 10.1775ZM18.9359 20.089C19.2444 20.0811 19.658 19.9898 19.8743 19.8849L20.4338 21.5716C20.2241 21.8858 19.2745 22.2497 18.4195 22.2645C15.8854 22.3088 14.9254 20.4289 14.9254 19.1055V15.2408H13.7481V13.713C15.513 13.0658 15.9372 11.4472 16.0369 10.525C16.0438 10.4617 16.0928 10.4367 16.1208 10.4367H17.8244V13.4499H20.1524V15.2409H17.8163V18.9232C17.8238 19.4238 18.0046 20.1143 18.9359 20.089Z" fill="white"/>
</svg>
