<svg width="886" height="558" viewBox="0 0 886 558" fill="none" xmlns="http://www.w3.org/2000/svg">
<path d="M1 478.916C171.722 467.704 290.165 228.486 321.231 161.38C357.128 83.8394 233.738 72.5956 208.734 135.9C185.229 195.411 356.861 263.075 508.819 254.489C630.385 247.621 756.295 126.286 834.42 46.7305" stroke="#FF2D46" stroke-width="9"/>
<g filter="url(#filter0_dd)">
<rect x="640.195" y="116.089" width="188.848" height="365.997" rx="27.0552" fill="#FF0000" fill-opacity="0.01"/>
</g>
<rect x="640.195" y="116.089" width="188.848" height="365.997" rx="27.0552" fill="white"/>
<rect x="653.557" y="130.366" width="166.275" height="340.559" rx="16.5337" fill="#F2F3F7"/>
<mask id="mask0" mask-type="alpha" maskUnits="userSpaceOnUse" x="653" y="130" width="167" height="341">
<rect x="653.557" y="130.366" width="166.275" height="340.559" rx="16.5337" fill="#F7F7F9"/>
</mask>
<g mask="url(#mask0)">
<rect x="686.248" y="121.573" width="96.7437" height="18.9034" rx="9.45169" fill="white"/>
<circle cx="672.413" cy="163.188" r="13.9617" fill="#2388FF"/>
<rect x="693.076" y="153.37" width="83.0863" height="7.51533" rx="3.75767" fill="#D4D4DA"/>
<rect x="658.451" y="334.407" width="46.5513" height="8.64978" rx="4.32489" fill="#D4D4DA"/>
<rect x="693.076" y="166.994" width="43.6185" height="6.01227" rx="3.00613" fill="#E4E4EA"/>
<rect x="658.451" y="299.087" width="66.1349" height="6.01227" rx="3.00613" fill="#D2D2DB"/>
<rect x="666.48" y="308.84" width="48.4049" height="6.01227" rx="3.00613" fill="#E2E2E8"/>
<rect x="740.215" y="308.84" width="48.4049" height="6.01227" rx="3.00613" fill="#E2E2E8"/>
<rect x="813.113" y="308.84" width="48.4049" height="6.01227" rx="3.00613" fill="#E2E2E8"/>
<rect x="731.35" y="299.087" width="66.1349" height="6.01227" rx="3.00613" fill="#D2D2DB"/>
<rect x="804.248" y="299.087" width="66.1349" height="6.01227" rx="3.00613" fill="#D2D2DB"/>
<rect x="658.451" y="192.353" width="66.1349" height="96.9321" rx="9.0184" fill="#FF2D46"/>
<rect x="731.35" y="192.353" width="66.1349" height="96.9321" rx="9.0184" fill="#DCDEE6"/>
<g filter="url(#filter1_d)">
<rect x="658.451" y="422.525" width="152.331" height="30.0613" rx="6.01226" fill="white"/>
</g>
<circle cx="673.847" cy="437.556" r="9.68124" fill="#2388FF"/>
<rect x="688.557" y="429.674" width="56.6337" height="6.01227" rx="3.00613" fill="#E3E3EC"/>
<rect x="688.557" y="439.426" width="86.3322" height="6.01227" rx="3.00613" fill="#F1F1F4"/>
<rect x="804.248" y="192.353" width="66.1349" height="96.9321" rx="9.0184" fill="#DCDEE6"/>
<g filter="url(#filter2_d)">
<rect x="658.451" y="350.435" width="152.331" height="30.0613" rx="6.01226" fill="white"/>
</g>
<g filter="url(#filter3_d)">
<rect x="658.451" y="386.508" width="152.331" height="30.0613" rx="6.01226" fill="white"/>
</g>
<circle cx="673.847" cy="365.465" r="9.68124" fill="#FFD707"/>
<circle cx="673.847" cy="401.539" r="9.68124" fill="#63DE77"/>
<rect x="688.557" y="357.583" width="79.863" height="6.01227" rx="3.00613" fill="#E3E3EC"/>
<rect x="688.557" y="393.656" width="56.6337" height="6.01227" rx="3.00613" fill="#E3E3EC"/>
<rect x="688.557" y="367.335" width="58.4527" height="6.01227" rx="3.00613" fill="#F1F1F4"/>
<rect x="688.557" y="403.409" width="86.3322" height="6.01227" rx="3.00613" fill="#F1F1F4"/>
<rect x="653.205" y="445.361" width="166.806" height="27.4312" fill="#F0F0F8"/>
<circle cx="736.392" cy="442.255" r="15.7822" fill="#FF2D46"/>
</g>
<g filter="url(#filter4_dd)">
<rect x="98.5137" y="174.6" width="313.348" height="307.487" rx="21.8557" fill="#FF0000" fill-opacity="0.01"/>
</g>
<rect x="98.5137" y="174.6" width="313.348" height="307.487" rx="21.8557" fill="white"/>
<rect x="198.625" y="203.311" width="95.5183" height="13.1134" rx="6.55671" fill="#2388FF"/>
<rect x="198.625" y="396.597" width="95.5183" height="13.1134" rx="6.55671" fill="#2388FF"/>
<rect x="305.07" y="203.311" width="50.0008" height="13.1134" rx="6.55671" fill="#E0E5EE"/>
<rect x="305.07" y="396.597" width="50.0008" height="13.1134" rx="6.55671" fill="#E0E5EE"/>
<rect x="198.625" y="227.352" width="67.6202" height="13.1134" rx="6.55671" fill="#E0E5EE"/>
<rect x="198.625" y="420.638" width="67.6202" height="13.1134" rx="6.55671" fill="#E0E5EE"/>
<rect x="208.574" y="251.393" width="106.446" height="13.1134" rx="6.55671" fill="#E0E5EE"/>
<rect x="208.574" y="444.679" width="106.446" height="13.1134" rx="6.55671" fill="#E0E5EE"/>
<rect x="198.625" y="275.434" width="52.0615" height="13.1134" rx="6.55671" fill="#FF2D46"/>
<rect x="216.002" y="299.476" width="136.718" height="13.1134" rx="6.55671" fill="#E0E5EE"/>
<rect x="198.625" y="323.105" width="86.6023" height="13.1134" rx="6.55671" fill="#FFD707"/>
<rect x="233.871" y="349.878" width="58.2598" height="13.1134" rx="6.55671" fill="#E0E5EE"/>
<rect x="198.625" y="373.069" width="132.878" height="13.1134" rx="6.55671" fill="#E0E5EE"/>
<rect x="342.43" y="373.069" width="40.2006" height="13.1134" rx="6.55671" fill="#E0E5EE"/>
<rect x="303.059" y="349.878" width="46.661" height="13.1134" rx="6.55671" fill="#63DE77"/>
<rect x="296.154" y="323.105" width="76.0988" height="13.1134" rx="6.55671" fill="#E0E5EE"/>
<rect x="325.947" y="251.393" width="56.6829" height="13.1134" rx="6.55671" fill="#FF2D46"/>
<rect x="325.947" y="444.679" width="56.6829" height="13.1134" rx="6.55671" fill="#FF2D46"/>
<rect x="260.521" y="275.434" width="56.6829" height="13.1134" rx="6.55671" fill="#E0E5EE"/>
<rect x="277.172" y="227.352" width="105.458" height="13.1134" rx="6.55671" fill="#E0E5EE"/>
<rect x="277.172" y="420.638" width="105.458" height="13.1134" rx="6.55671" fill="#E0E5EE"/>
<path d="M98.5137 196.455C98.5137 184.385 108.299 174.6 120.369 174.6H187.099V482.086H120.369C108.299 482.086 98.5137 472.301 98.5137 460.23V196.455Z" fill="#F8F9FC"/>
<rect x="113.152" y="204.403" width="56.4263" height="8.74228" rx="4.37114" fill="#DEE3ED"/>
<rect x="113.152" y="224.074" width="43.3473" height="8.74228" rx="4.37114" fill="#DEE3ED"/>
<rect x="113.152" y="243.744" width="56.4263" height="8.74228" rx="4.37114" fill="#DEE3ED"/>
<rect x="113.152" y="263.414" width="43.3473" height="8.74228" rx="4.37114" fill="#DEE3ED"/>
<rect x="113.152" y="283.083" width="56.4263" height="8.74228" rx="4.37114" fill="#DEE3ED"/>
<g filter="url(#filter5_dd)">
<rect x="342.43" y="58.707" width="332.154" height="375.045" rx="25.9736" fill="#FF0000" fill-opacity="0.01"/>
</g>
<rect x="342.43" y="58.707" width="332.154" height="375.045" rx="25.9736" fill="white"/>
<rect x="356.955" y="95.5288" width="57.447" height="19.7022" rx="9.85108" fill="#B4BCDA"/>
<rect x="515.195" y="98.4453" width="46.5207" height="13.8696" rx="6.93479" fill="#E2E6F3"/>
<rect x="568.283" y="98.4453" width="36.0816" height="13.8696" rx="6.93479" fill="#E2E6F3"/>
<rect x="610.934" y="95.7417" width="45.34" height="19.2768" rx="9.63841" fill="#FF2D46"/>
<rect x="356.955" y="125.248" width="299.317" height="136.522" rx="13.1348" fill="#F6F7FB" fill-opacity="0.7"/>
<rect x="369.834" y="214.113" width="59.0173" height="17.2464" rx="8.62322" fill="#FF2D46"/>
<rect x="369.834" y="155.658" width="80.905" height="14.7766" rx="7.38831" fill="#C0CADE"/>
<rect x="369.834" y="178.813" width="117.805" height="9.85108" rx="4.92554" fill="#DEE3ED"/>
<rect x="369.834" y="194.411" width="99.9509" height="9.85108" rx="4.92554" fill="#DEE3ED"/>
<rect x="542.352" y="165.369" width="64.7807" height="73.9083" rx="9.29973" fill="#D4DEEE"/>
<rect x="517.039" y="147.74" width="59.8696" height="64.1164" rx="9.29973" fill="#2388FF"/>
<rect x="582.096" y="181.007" width="58.0974" height="52.7018" rx="9.29973" fill="#FFD707"/>
<rect x="392.135" y="293.079" width="106.703" height="7.38831" rx="3.69415" fill="#D6DBE6"/>
<rect x="392.135" y="304.571" width="59.1837" height="7.38831" rx="3.69415" fill="#EDF0F5"/>
<circle cx="371.732" cy="302.52" r="14.7766" fill="#2388FF"/>
<rect x="392.135" y="332.483" width="66.3203" height="7.38831" rx="3.69415" fill="#D6DBE6"/>
<rect x="392.135" y="343.977" width="95.5033" height="7.38831" rx="3.69415" fill="#EDF0F5"/>
<circle cx="371.732" cy="341.924" r="14.7766" fill="#63DE77"/>
<rect x="392.135" y="371.887" width="106.703" height="7.38831" rx="3.69415" fill="#D6DBE6"/>
<rect x="392.135" y="383.38" width="42.2227" height="7.38831" rx="3.69415" fill="#EDF0F5"/>
<circle cx="371.732" cy="381.328" r="14.7766" fill="#FFD707"/>
<g filter="url(#filter6_d)">
<rect x="523.117" y="278.682" width="133.156" height="126.484" rx="16.4185" fill="#EBEFF7"/>
</g>
<defs>
<filter id="filter0_dd" x="583.888" y="76.1806" width="301.464" height="481.761" filterUnits="userSpaceOnUse" color-interpolation-filters="sRGB">
<feFlood flood-opacity="0" result="BackgroundImageFix"/>
<feColorMatrix in="SourceAlpha" type="matrix" values="0 0 0 0 0 0 0 0 0 0 0 0 0 0 0 0 0 0 127 0"/>
<feOffset dy="19.5476"/>
<feGaussianBlur stdDeviation="28.1539"/>
<feColorMatrix type="matrix" values="0 0 0 0 0.1375 0 0 0 0 0.53425 0 0 0 0 1 0 0 0 0.05 0"/>
<feBlend mode="normal" in2="BackgroundImageFix" result="effect1_dropShadow"/>
<feColorMatrix in="SourceAlpha" type="matrix" values="0 0 0 0 0 0 0 0 0 0 0 0 0 0 0 0 0 0 127 0"/>
<feOffset dy="2.56937"/>
<feGaussianBlur stdDeviation="21.2391"/>
<feColorMatrix type="matrix" values="0 0 0 0 0.0969792 0 0 0 0 0.127894 0 0 0 0 0.2375 0 0 0 0.04 0"/>
<feBlend mode="normal" in2="effect1_dropShadow" result="effect2_dropShadow"/>
<feBlend mode="normal" in="SourceGraphic" in2="effect2_dropShadow" result="shape"/>
</filter>
<filter id="filter1_d" x="653.942" y="419.519" width="161.35" height="39.0797" filterUnits="userSpaceOnUse" color-interpolation-filters="sRGB">
<feFlood flood-opacity="0" result="BackgroundImageFix"/>
<feColorMatrix in="SourceAlpha" type="matrix" values="0 0 0 0 0 0 0 0 0 0 0 0 0 0 0 0 0 0 127 0"/>
<feOffset dy="1.50307"/>
<feGaussianBlur stdDeviation="2.2546"/>
<feColorMatrix type="matrix" values="0 0 0 0 0.1375 0 0 0 0 0.53425 0 0 0 0 1 0 0 0 0.06 0"/>
<feBlend mode="normal" in2="BackgroundImageFix" result="effect1_dropShadow"/>
<feBlend mode="normal" in="SourceGraphic" in2="effect1_dropShadow" result="shape"/>
</filter>
<filter id="filter2_d" x="653.942" y="347.428" width="161.35" height="39.0797" filterUnits="userSpaceOnUse" color-interpolation-filters="sRGB">
<feFlood flood-opacity="0" result="BackgroundImageFix"/>
<feColorMatrix in="SourceAlpha" type="matrix" values="0 0 0 0 0 0 0 0 0 0 0 0 0 0 0 0 0 0 127 0"/>
<feOffset dy="1.50307"/>
<feGaussianBlur stdDeviation="2.2546"/>
<feColorMatrix type="matrix" values="0 0 0 0 0.1375 0 0 0 0 0.53425 0 0 0 0 1 0 0 0 0.06 0"/>
<feBlend mode="normal" in2="BackgroundImageFix" result="effect1_dropShadow"/>
<feBlend mode="normal" in="SourceGraphic" in2="effect1_dropShadow" result="shape"/>
</filter>
<filter id="filter3_d" x="653.942" y="383.502" width="161.35" height="39.0797" filterUnits="userSpaceOnUse" color-interpolation-filters="sRGB">
<feFlood flood-opacity="0" result="BackgroundImageFix"/>
<feColorMatrix in="SourceAlpha" type="matrix" values="0 0 0 0 0 0 0 0 0 0 0 0 0 0 0 0 0 0 127 0"/>
<feOffset dy="1.50307"/>
<feGaussianBlur stdDeviation="2.2546"/>
<feColorMatrix type="matrix" values="0 0 0 0 0.1375 0 0 0 0 0.53425 0 0 0 0 1 0 0 0 0.06 0"/>
<feBlend mode="normal" in2="BackgroundImageFix" result="effect1_dropShadow"/>
<feBlend mode="normal" in="SourceGraphic" in2="effect1_dropShadow" result="shape"/>
</filter>
<filter id="filter4_dd" x="50.9729" y="142.185" width="408.43" height="402.568" filterUnits="userSpaceOnUse" color-interpolation-filters="sRGB">
<feFlood flood-opacity="0" result="BackgroundImageFix"/>
<feColorMatrix in="SourceAlpha" type="matrix" values="0 0 0 0 0 0 0 0 0 0 0 0 0 0 0 0 0 0 127 0"/>
<feOffset dy="15.1266"/>
<feGaussianBlur stdDeviation="23.7704"/>
<feColorMatrix type="matrix" values="0 0 0 0 0.1375 0 0 0 0 0.53425 0 0 0 0 1 0 0 0 0.06 0"/>
<feBlend mode="normal" in2="BackgroundImageFix" result="effect1_dropShadow"/>
<feColorMatrix in="SourceAlpha" type="matrix" values="0 0 0 0 0 0 0 0 0 0 0 0 0 0 0 0 0 0 127 0"/>
<feOffset dy="-1.08047"/>
<feGaussianBlur stdDeviation="9.485"/>
<feColorMatrix type="matrix" values="0 0 0 0 0.223611 0 0 0 0 0.343083 0 0 0 0 0.766667 0 0 0 0.07 0"/>
<feBlend mode="normal" in2="effect1_dropShadow" result="effect2_dropShadow"/>
<feBlend mode="normal" in="SourceGraphic" in2="effect2_dropShadow" result="shape"/>
</filter>
<filter id="filter5_dd" x="281.731" y="0.46896" width="453.552" height="505.345" filterUnits="userSpaceOnUse" color-interpolation-filters="sRGB">
<feFlood flood-opacity="0" result="BackgroundImageFix"/>
<feColorMatrix in="SourceAlpha" type="matrix" values="0 0 0 0 0 0 0 0 0 0 0 0 0 0 0 0 0 0 127 0"/>
<feOffset dy="11.3634"/>
<feGaussianBlur stdDeviation="30.3495"/>
<feColorMatrix type="matrix" values="0 0 0 0 0.0466146 0 0 0 0 0.284349 0 0 0 0 0.745833 0 0 0 0.04 0"/>
<feBlend mode="normal" in2="BackgroundImageFix" result="effect1_dropShadow"/>
<feColorMatrix in="SourceAlpha" type="matrix" values="0 0 0 0 0 0 0 0 0 0 0 0 0 0 0 0 0 0 127 0"/>
<feOffset dy="-0.187381"/>
<feGaussianBlur stdDeviation="29.0253"/>
<feColorMatrix type="matrix" values="0 0 0 0 0.223611 0 0 0 0 0.343083 0 0 0 0 0.766667 0 0 0 0.05 0"/>
<feBlend mode="normal" in2="effect1_dropShadow" result="effect2_dropShadow"/>
<feBlend mode="normal" in="SourceGraphic" in2="effect2_dropShadow" result="shape"/>
</filter>
<filter id="filter6_d" x="511.624" y="272.114" width="156.142" height="149.47" filterUnits="userSpaceOnUse" color-interpolation-filters="sRGB">
<feFlood flood-opacity="0" result="BackgroundImageFix"/>
<feColorMatrix in="SourceAlpha" type="matrix" values="0 0 0 0 0 0 0 0 0 0 0 0 0 0 0 0 0 0 127 0"/>
<feOffset dy="4.92554"/>
<feGaussianBlur stdDeviation="5.74646"/>
<feColorMatrix type="matrix" values="0 0 0 0 0.87875 0 0 0 0 0.904659 0 0 0 0 0.95 0 0 0 0.26 0"/>
<feBlend mode="normal" in2="BackgroundImageFix" result="effect1_dropShadow"/>
<feBlend mode="normal" in="SourceGraphic" in2="effect1_dropShadow" result="shape"/>
</filter>
</defs>
</svg>
