<svg width="34" height="33" viewBox="0 0 34 33" fill="none" xmlns="http://www.w3.org/2000/svg">
<path d="M10.1198 16.2752C9.82074 16.7445 9.69537 18.2204 9.7996 19.199C9.83585 19.5217 9.89627 19.7912 9.98238 19.9525C10.1017 20.1746 10.3026 20.3078 10.5307 20.3152C10.6772 20.3226 10.7694 20.2975 13.5262 19.4285C13.5262 19.4285 14.7513 19.045 14.7573 19.0421C15.0625 18.9651 15.2694 18.6897 15.2891 18.3389C15.3087 17.9776 15.1199 17.6594 14.8057 17.5454C14.8057 17.5454 13.9416 17.2004 13.9401 17.2004C10.9763 16.0028 10.8434 15.9554 10.6939 15.9539C10.4643 15.9465 10.2618 16.059 10.1198 16.2752V16.2752ZM16.7483 25.2006C16.7966 25.0644 16.8027 24.9712 16.8102 22.1317C16.8102 22.1317 16.8163 20.8778 16.8178 20.8645C16.8374 20.5565 16.635 20.2767 16.3027 20.1509C15.9598 20.0221 15.5912 20.1021 15.3842 20.3537C15.3842 20.3537 14.78 21.0569 14.777 21.0569C12.7014 23.4463 12.6138 23.5574 12.564 23.698C12.5322 23.7809 12.5217 23.8697 12.5307 23.9586C12.5428 24.0859 12.6017 24.2102 12.6984 24.3272C13.1803 24.8883 15.4885 25.7203 16.2256 25.5959C16.4839 25.553 16.6697 25.4123 16.7483 25.2006ZM21.4326 24.2132C22.129 23.9408 23.6471 22.0488 23.7544 21.319C23.7921 21.0658 23.7106 20.8467 23.5323 20.7075C23.416 20.6217 23.3269 20.5876 20.5701 19.7009C20.5701 19.7009 19.3616 19.31 19.345 19.3026C19.0519 19.1916 18.7181 19.2952 18.4945 19.5661C18.2604 19.8445 18.2256 20.2131 18.4129 20.4899L18.8994 21.2657C20.5353 23.8697 20.6607 24.0533 20.7785 24.1436C20.9598 24.2843 21.1909 24.3079 21.4326 24.2132ZM20.0081 17.5098C23.1396 16.7667 23.2619 16.7267 23.3843 16.6467C23.5746 16.5209 23.6698 16.3122 23.6532 16.0575C23.6532 16.0501 23.6547 16.0413 23.6532 16.0324C23.5731 15.2774 22.2257 13.3173 21.561 12.999C21.3254 12.8879 21.0897 12.8953 20.8948 13.0241C20.774 13.1011 20.6849 13.2181 19.0081 15.4668C19.0081 15.4668 18.2513 16.478 18.2423 16.4883C18.0429 16.7267 18.0398 17.0672 18.2347 17.3603C18.4371 17.6638 18.7785 17.8104 19.0912 17.726C19.0912 17.726 19.0791 17.7482 19.0761 17.7511C19.2302 17.6934 19.5051 17.6268 20.0081 17.5098V17.5098ZM16.8646 14.9753C16.8102 13.7584 16.4371 8.34156 16.3933 8.09137C16.3299 7.86339 16.1486 7.70202 15.8888 7.63688C15.0882 7.44294 12.0322 8.28235 11.4658 8.85379C11.283 9.04032 11.2165 9.26831 11.2709 9.47113C11.36 9.65026 15.1471 15.4891 15.1471 15.4891C15.706 16.3788 16.1637 16.2396 16.3132 16.1937C16.4613 16.1508 16.916 16.0116 16.8646 14.9753" fill="white"/>
</svg>
